{"title":"Disturbed - Believe [DVD-A rip 24-bit 44.1kHz wav] MC Lurken","uid":11711228,"size":752386341,"categoryP":"audio","categoryS":"other","magnet":"?xt=urn:btih:c9a9f0e7e7b16ca65ae899081ac40367fc375a44&amp;dn=Disturbed+-+Believe+%5BDVD-A+rip+24-bit+44.1kHz+wav%5D+MC+Lurken&amp;tr=udp%3A%2F%2Ftracker.openbittorrent.com%3A80&amp;tr=udp%3A%2F%2Fopen.demonii.com%3A1337&amp;tr=udp%3A%2F%2Ftracker.coppersurfer.tk%3A6969&amp;tr=udp%3A%2F%2Fexodus.desync.com%3A6969","seeders":0,"leechers":1,"uploader":"beavis39","files":17,"time":1424304515,"description":"Disturbed - Believe [DVD-Audio rip 24-bit 44.1kHz audiophile wav] MC Lurken\n\n\n\n1 - Prayer\n2 - Liberate\n3 - Awaken\n4 - Believe\n5 - Remember\n6 - Intoxication\n7 - Rise\n8 - Mistress\n9 - Breathe\n10 - Bound\n11 - Devour\n12 - Darkness\n\n\n\nfoobar2000 1.3.7 / Dynamic Range Meter 1.1.1\nlog date: 2015-02-18 12:30:27\n\n--------------------------------------------------------------------------------\nAnalyzed: Disturbed / Believe\n--------------------------------------------------------------------------------\n\nDR         Peak         RMS     Duration Track\n--------------------------------------------------------------------------------\nDR8        0.00 dB    -8.62 dB      3:41 01-Prayer\nDR8        0.00 dB    -8.38 dB      3:30 02-Liberate\nDR7        0.00 dB    -8.18 dB      4:30 03-Awaken\nDR8        0.00 dB    -9.33 dB      4:28 04-Believe\nDR7        0.00 dB    -8.53 dB      4:11 05-Remember\nDR8        0.00 dB    -8.07 dB      3:14 06-Intoxication\nDR7        0.00 dB    -8.03 dB      3:57 07-Rise\nDR8        0.00 dB    -9.62 dB      3:47 08-Mistress\nDR8        0.00 dB    -8.78 dB      4:21 09-Breathe\nDR8        0.00 dB    -9.56 dB      3:53 10-Bound\nDR7        0.00 dB    -8.15 dB      3:52 11-Devour\nDR9       -0.63 dB   -12.55 dB      3:57 12-Darkness\n--------------------------------------------------------------------------------\n\nNumber of tracks:  12\nOfficial DR value: DR8\n\nSamplerate:        44100 Hz\nChannels:          2\nBits per sample:   24\nBitrate:           2116 kbps\nCodec:             PCM","torrent":{"xt":"urn:btih:c9a9f0e7e7b16ca65ae899081ac40367fc375a44","amp;dn":"Disturbed+-+Believe+%5BDVD-A+rip+24-bit+44.1kHz+wav%5D+MC+Lurken","amp;tr":["udp%3A%2F%2Ftracker.openbittorrent.com%3A80","udp%3A%2F%2Fopen.demonii.com%3A1337","udp%3A%2F%2Ftracker.coppersurfer.tk%3A6969","udp%3A%2F%2Fexodus.desync.com%3A6969"],"infoHash":"c9a9f0e7e7b16ca65ae899081ac40367fc375a44","infoHashBuffer":{"type":"Buffer","data":[201,169,240,231,231,177,108,166,90,232,153,8,26,196,3,103,252,55,90,68]},"announce":[],"urlList":[]}}